<svg xmlns="http://www.w3.org/2000/svg" viewBox="0 0 24 24" role="img" aria-label="Fever">
  <g transform="translate(7.74, 2) scale(0.876)">
    <path
      fill="#06232C"
      fill-rule="evenodd"
      clip-rule="evenodd"
      d="M4.93736 10.5236L4.93538 11.2057H7.91674C8.51509 11.2057 9.00043 11.6796 9.00043 12.2638V14.225C9.00043 14.8092 8.51509 15.283 7.91674 15.283H4.93538V21.7759C4.93538 22.3603 4.45005 22.8339 3.85169 22.8339H1.08369C0.485055 22.8339 0 22.3603 0 21.7759V10.4644H0.00197291C0.0295937 5.09818 3.73388 0.663695 8.50325 0.0101492C9.14924 -0.0784579 9.72308 0.424841 9.72308 1.06188V3.95537C9.72308 4.45784 9.35865 4.88079 8.85641 4.98921C6.62983 5.47022 4.93736 7.76877 4.93736 10.5236Z"
    />
  </g>
</svg>
